<svg width="50" height="45" viewBox="0 0 50 45" fill="none" xmlns="http://www.w3.org/2000/svg">
<path d="M25.1568 30.6612C27.1697 30.6612 28.8015 29.0294 28.8015 27.0166C28.8015 25.0037 27.1697 23.3719 25.1568 23.3719C23.144 23.3719 21.5122 25.0037 21.5122 27.0166C21.5122 29.0294 23.144 30.6612 25.1568 30.6612Z" fill="#D9D9D9"/>
<path d="M42.1651 10.0083H34.8759V6.36368C34.8759 4.75266 34.2359 3.20762 33.0967 2.06845C31.9576 0.929284 30.4125 0.289307 28.8015 0.289307H21.5123C19.9012 0.289307 18.3562 0.929284 17.217 2.06845C16.0779 3.20762 15.4379 4.75266 15.4379 6.36368V10.0083H8.14863C6.2154 10.0083 4.36135 10.7763 2.99435 12.1433C1.62735 13.5103 0.859375 15.3643 0.859375 17.2976V36.7356C0.859375 38.6688 1.62735 40.5229 2.99435 41.8899C4.36135 43.2569 6.2154 44.0248 8.14863 44.0248H42.1651C44.0984 44.0248 45.9524 43.2569 47.3194 41.8899C48.6864 40.5229 49.4544 38.6688 49.4544 36.7356V17.2976C49.4544 15.3643 48.6864 13.5103 47.3194 12.1433C45.9524 10.7763 44.0984 10.0083 42.1651 10.0083ZM20.2974 6.36368C20.2974 6.04148 20.4254 5.73247 20.6532 5.50464C20.881 5.2768 21.1901 5.14881 21.5123 5.14881H28.8015C29.1237 5.14881 29.4327 5.2768 29.6606 5.50464C29.8884 5.73247 30.0164 6.04148 30.0164 6.36368V10.0083H20.2974V6.36368ZM25.1569 35.5207C23.4749 35.5207 21.8307 35.0219 20.4322 34.0875C19.0337 33.153 17.9438 31.8249 17.3001 30.271C16.6564 28.717 16.488 27.0071 16.8162 25.3575C17.1443 23.7079 17.9542 22.1926 19.1436 21.0032C20.3329 19.8139 21.8482 19.004 23.4978 18.6758C25.1474 18.3477 26.8573 18.5161 28.4113 19.1598C29.9652 19.8034 31.2934 20.8934 32.2278 22.2919C33.1623 23.6904 33.661 25.3346 33.661 27.0166C33.661 29.272 32.765 31.4351 31.1702 33.0299C29.5754 34.6247 27.4123 35.5207 25.1569 35.5207Z" fill="#D9D9D9"/>
</svg>
