<svg width="21" height="20" viewBox="0 0 21 20" fill="none" xmlns="http://www.w3.org/2000/svg">
<path d="M20.9016 8.99998C20.8566 7.86983 20.59 6.75963 20.1169 5.73282C19.6019 4.61233 18.8733 3.60366 17.9721 2.76362C16.076 0.981457 13.5768 0 10.9349 0C8.96225 -6.13968e-06 7.03388 0.586479 5.39367 1.68529C3.75346 2.7841 2.47507 4.34589 1.72016 6.17315C0.965258 8.00041 0.767741 10.0111 1.15259 11.9509C1.53744 13.8907 2.48737 15.6725 3.88226 17.0711C5.74027 18.9339 8.25643 19.9864 10.884 19.9998C13.5116 20.0133 16.0383 18.9866 17.9152 17.1428L16.9843 16.1905C15.3716 17.7821 13.1979 18.6719 10.9349 18.6666C6.16857 18.6666 2.29083 14.7788 2.29083 9.99998C2.29083 5.2212 6.16857 1.33333 10.9349 1.33333C15.6205 1.33333 19.579 4.99687 19.579 9.33332V10.8333C19.579 12.028 18.535 13 17.2517 13C15.9685 13 14.9245 12.028 14.9245 10.8333V5.99999H13.5946V7.11461C12.9775 6.53993 12.2008 6.16683 11.3674 6.04476C10.534 5.9227 9.68331 6.05742 8.92802 6.43108C8.17273 6.80474 7.54852 7.3997 7.13812 8.1371C6.72772 8.8745 6.5505 9.71953 6.62996 10.5602C6.70941 11.4009 7.04179 12.1975 7.58304 12.8445C8.12428 13.4915 8.84885 13.9583 9.6607 14.183C10.4726 14.4078 11.3334 14.3799 12.129 14.1031C12.9247 13.8262 13.6177 13.3135 14.1162 12.6328C14.7564 13.6508 15.9223 14.3333 17.2517 14.3333C19.2683 14.3333 20.9089 12.7632 20.9089 10.8333V8.99998H20.9016ZM10.7687 13C10.2098 13 9.66339 12.8338 9.19867 12.5225C8.73394 12.2111 8.37173 11.7686 8.15784 11.2509C7.94395 10.7332 7.88799 10.1635 7.99703 9.61389C8.10607 9.06428 8.37522 8.55943 8.77043 8.16318C9.16565 7.76693 9.66918 7.49709 10.2174 7.38776C10.7655 7.27844 11.3337 7.33455 11.8501 7.54899C12.3665 7.76344 12.8079 8.1266 13.1184 8.59254C13.4289 9.05847 13.5946 9.60627 13.5946 10.1666C13.5938 10.9178 13.2958 11.638 12.766 12.1692C12.2362 12.7003 11.5179 12.9991 10.7687 13Z" fill="#D9D9D9"/>
</svg>
