<svg width="21" height="21" viewBox="0 0 21 21" fill="none" xmlns="http://www.w3.org/2000/svg">
<path fill-rule="evenodd" clip-rule="evenodd" d="M18.4735 10.5579C18.1229 11.1687 17.2984 12.4511 16.0126 13.6237L14.8206 12.4317C15.7161 11.6283 16.364 10.7446 16.7492 10.1415C15.9619 8.94271 13.5771 5.82375 9.95208 5.91583C9.44521 5.9285 8.96959 6.00791 8.51679 6.12787L7.18202 4.79311C8.00315 4.46871 8.90792 4.25244 9.909 4.2271C14.9566 4.06912 17.9345 8.77797 18.4735 9.71738C18.6221 9.97757 18.6221 10.2977 18.4735 10.5579V10.5579ZM11.7574 14.1474L13.0922 15.4822C12.2719 15.8066 11.3663 16.0229 10.3661 16.0482C10.2968 16.0499 10.2275 16.0507 10.1582 16.0507C5.20525 16.0507 2.33297 11.4847 1.8016 10.5579C1.65207 10.2977 1.65207 9.97756 1.8016 9.71737C2.15134 9.10658 2.97585 7.8242 4.26162 6.65078L5.45362 7.84363C4.55814 8.64702 3.91103 9.53067 3.52497 10.1338C4.31231 11.3326 6.68616 14.444 10.323 14.3595C10.8298 14.3468 11.3055 14.2674 11.7574 14.1474V14.1474ZM10.1371 11.4043C9.43849 11.4043 8.86995 10.8367 8.86995 10.1372C8.86995 10.116 8.87924 10.0966 8.88008 10.0747L10.2005 11.3951C10.1785 11.3959 10.1591 11.4043 10.1371 11.4043V11.4043ZM3.97604 2.78165C3.64657 2.45218 3.11182 2.45218 2.78151 2.78165C2.45204 3.11196 2.45204 3.64671 2.78151 3.97618L7.53851 8.73318C7.3045 9.16233 7.18032 9.63964 7.18032 10.1372C7.18032 11.7677 8.50748 13.094 10.1371 13.094C10.6355 13.094 11.1128 12.9698 11.542 12.7366L16.2981 17.4928C16.4637 17.6584 16.6791 17.7403 16.8954 17.7403C17.1116 17.7403 17.3279 17.6584 17.4926 17.4928C17.823 17.1633 17.823 16.6286 17.4926 16.2983L3.97604 2.78165Z" fill="#A0A1B4"/>
</svg>
