<svg width="166" height="75" viewBox="0 0 166 75" fill="none" xmlns="http://www.w3.org/2000/svg">
<path d="M29.45 61.15L24.15 54.8C22.6833 55.1667 21.1833 55.35 19.65 55.35C16.3833 55.35 13.3833 54.5833 10.65 53.05C7.91667 51.5167 5.75 49.4 4.15 46.7C2.55 43.9667 1.75 40.8833 1.75 37.45C1.75 34.05 2.55 31 4.15 28.3C5.75 25.5667 7.91667 23.4333 10.65 21.9C13.3833 20.3667 16.3833 19.6 19.65 19.6C22.95 19.6 25.95 20.3667 28.65 21.9C31.3833 23.4333 33.5333 25.5667 35.1 28.3C36.7 31 37.5 34.05 37.5 37.45C37.5 40.55 36.8333 43.3833 35.5 45.95C34.2 48.4833 32.4167 50.55 30.15 52.15L38.15 61.15H29.45ZM8.95 37.45C8.95 39.7833 9.4 41.8333 10.3 43.6C11.2 45.3667 12.45 46.7333 14.05 47.7C15.6833 48.6333 17.55 49.1 19.65 49.1C21.75 49.1 23.6 48.6333 25.2 47.7C26.8 46.7333 28.05 45.3667 28.95 43.6C29.85 41.8333 30.3 39.7833 30.3 37.45C30.3 35.1167 29.85 33.0833 28.95 31.35C28.05 29.5833 26.8 28.2333 25.2 27.3C23.6 26.3667 21.75 25.9 19.65 25.9C17.55 25.9 15.6833 26.3667 14.05 27.3C12.45 28.2333 11.2 29.5833 10.3 31.35C9.4 33.0833 8.95 35.1167 8.95 37.45ZM68.9555 27.3V55H61.9055V51.5C61.0055 52.7 59.8221 53.65 58.3555 54.35C56.9221 55.0167 55.3555 55.35 53.6555 55.35C51.4888 55.35 49.5721 54.9 47.9055 54C46.2388 53.0667 44.9221 51.7167 43.9555 49.95C43.0221 48.15 42.5555 46.0167 42.5555 43.55V27.3H49.5555V42.55C49.5555 44.75 50.1055 46.45 51.2055 47.65C52.3055 48.8167 53.8055 49.4 55.7055 49.4C57.6388 49.4 59.1555 48.8167 60.2555 47.65C61.3555 46.45 61.9055 44.75 61.9055 42.55V27.3H68.9555ZM79.4121 24C78.1788 24 77.1454 23.6167 76.3121 22.85C75.5121 22.05 75.1121 21.0667 75.1121 19.9C75.1121 18.7333 75.5121 17.7667 76.3121 17C77.1454 16.2 78.1788 15.8 79.4121 15.8C80.6454 15.8 81.6621 16.2 82.4621 17C83.2954 17.7667 83.7121 18.7333 83.7121 19.9C83.7121 21.0667 83.2954 22.05 82.4621 22.85C81.6621 23.6167 80.6454 24 79.4121 24ZM82.8621 27.3V55H75.8621V27.3H82.8621Z" fill="white"/>
<path fill-rule="evenodd" clip-rule="evenodd" d="M161.654 19.577C163.183 19.577 164.423 20.8168 164.423 22.3462C164.423 23.8756 163.183 25.1154 161.654 25.1154L131.312 25.1154C129.783 25.1154 128.543 23.8756 128.543 22.3462C128.543 20.8168 129.783 19.577 131.312 19.577L161.654 19.577ZM147.863 36.5C147.863 34.9706 146.623 33.7307 145.094 33.7307L114.752 33.7307C113.223 33.7307 111.983 34.9706 111.983 36.5C111.983 38.0294 113.223 39.2692 114.752 39.2692L145.094 39.2692C146.623 39.2692 147.863 38.0294 147.863 36.5ZM131.303 50.6539C131.303 49.1245 130.063 47.8846 128.534 47.8846L98.1922 47.8846C96.6628 47.8846 95.4229 49.1245 95.4229 50.6539C95.4229 52.1833 96.6628 53.4231 98.1922 53.4231L128.534 53.4231C130.063 53.4231 131.303 52.1833 131.303 50.6539Z" fill="white"/>
<path fill-rule="evenodd" clip-rule="evenodd" d="M163.423 22.3462C163.423 23.3233 162.631 24.1154 161.654 24.1154L131.312 24.1154C130.335 24.1154 129.543 23.3233 129.543 22.3462C129.543 21.3691 130.335 20.577 131.312 20.577L161.654 20.577C162.631 20.577 163.423 21.3691 163.423 22.3462ZM161.654 26.1154C163.736 26.1154 165.423 24.4279 165.423 22.3462C165.423 20.2645 163.736 18.577 161.654 18.577L131.312 18.577C129.231 18.577 127.543 20.2645 127.543 22.3462C127.543 24.4279 129.231 26.1154 131.312 26.1154L161.654 26.1154ZM145.094 40.2692C147.176 40.2692 148.863 38.5817 148.863 36.5C148.863 34.4183 147.176 32.7307 145.094 32.7307L114.752 32.7307C112.671 32.7307 110.983 34.4183 110.983 36.5C110.983 38.5817 112.671 40.2692 114.752 40.2692L145.094 40.2692ZM146.863 36.5C146.863 37.4771 146.071 38.2692 145.094 38.2692L114.752 38.2692C113.775 38.2692 112.983 37.4771 112.983 36.5C112.983 35.5228 113.775 34.7307 114.752 34.7307L145.094 34.7307C146.071 34.7307 146.863 35.5228 146.863 36.5ZM128.534 54.4231C130.615 54.4231 132.303 52.7355 132.303 50.6539C132.303 48.5722 130.615 46.8846 128.534 46.8846L98.1922 46.8846C96.1105 46.8846 94.4229 48.5722 94.4229 50.6539C94.4229 52.7355 96.1105 54.4231 98.1922 54.4231L128.534 54.4231ZM130.303 50.6539C130.303 51.631 129.511 52.4231 128.534 52.4231L98.1922 52.4231C97.215 52.4231 96.4229 51.631 96.4229 50.6539C96.4229 49.6767 97.215 48.8846 98.1922 48.8846L128.534 48.8846C129.511 48.8846 130.303 49.6767 130.303 50.6539Z" fill="white"/>
</svg>
