<svg width="45" height="24" viewBox="0 0 45 24" fill="none" xmlns="http://www.w3.org/2000/svg">
<path fill-rule="evenodd" clip-rule="evenodd" d="M2.76923 24C1.23983 24 -9.94878e-07 22.7602 -9.28025e-07 21.2307C-8.61173e-07 19.7013 1.23983 18.4615 2.76923 18.4615L20.6308 18.4615C22.1602 18.4615 23.4 19.7013 23.4 21.2307C23.4 22.7602 22.1602 24 20.6308 24L2.76923 24ZM10.7999 12C10.7999 13.5294 12.0398 14.7693 13.5692 14.7693L31.4307 14.7693C32.9601 14.7693 34.1999 13.5294 34.1999 12C34.1999 10.4706 32.9601 9.2308 31.4307 9.2308L13.5692 9.23081C12.0398 9.2308 10.7999 10.4706 10.7999 12ZM21.6 2.76923C21.6 4.29864 22.8399 5.53846 24.3693 5.53846L42.2308 5.53846C43.7602 5.53846 45 4.29864 45 2.76923C45 1.23983 43.7602 1.91282e-06 42.2308 1.84597e-06L24.3693 1.06521e-06C22.8399 9.98362e-07 21.6 1.23983 21.6 2.76923Z" fill="white"/>
</svg>
