<svg width="15" height="20" viewBox="0 0 15 20" fill="none" xmlns="http://www.w3.org/2000/svg">
<path d="M13.2543 7.66667V5.33333C13.2543 3.91885 12.6939 2.56229 11.6963 1.5621C10.6987 0.561903 9.3457 0 7.9349 0C6.52409 0 5.17107 0.561903 4.17348 1.5621C3.17589 2.56229 2.61545 3.91885 2.61545 5.33333V7.66667H0.953125V13C0.953125 16.8598 4.08511 20 7.9349 20C11.7847 20 14.9167 16.8598 14.9167 13V7.66667H13.2543ZM3.94531 5.33333C3.94531 4.27247 4.36564 3.25505 5.11383 2.50491C5.86203 1.75476 6.87679 1.33333 7.9349 1.33333C8.993 1.33333 10.0078 1.75476 10.756 2.50491C11.5042 3.25505 11.9245 4.27247 11.9245 5.33333V7.66667H3.94531V5.33333ZM13.5868 13C13.5868 16.1246 11.0513 18.6667 7.9349 18.6667C4.81845 18.6667 2.28299 16.1246 2.28299 13V9H13.5868V13Z" fill="#D9D9D9"/>
</svg>
