<svg width="28" height="16" viewBox="0 0 28 16" fill="none" xmlns="http://www.w3.org/2000/svg">
<path d="M10.6019 15.2139L8.69388 12.9279C8.16588 13.0599 7.62588 13.1259 7.07388 13.1259C5.89788 13.1259 4.81788 12.8499 3.83388 12.2979C2.84988 11.7459 2.06988 10.9839 1.49388 10.0119C0.917883 9.02786 0.629883 7.91786 0.629883 6.68186C0.629883 5.45786 0.917883 4.35986 1.49388 3.38786C2.06988 2.40386 2.84988 1.63586 3.83388 1.08386C4.81788 0.531859 5.89788 0.255859 7.07388 0.255859C8.26188 0.255859 9.34188 0.531859 10.3139 1.08386C11.2979 1.63586 12.0719 2.40386 12.6359 3.38786C13.2119 4.35986 13.4999 5.45786 13.4999 6.68186C13.4999 7.79786 13.2599 8.81786 12.7799 9.74186C12.3119 10.6539 11.6699 11.3979 10.8539 11.9739L13.7339 15.2139H10.6019ZM3.22188 6.68186C3.22188 7.52186 3.38388 8.25986 3.70788 8.89586C4.03188 9.53186 4.48188 10.0239 5.05788 10.3719C5.64588 10.7079 6.31788 10.8759 7.07388 10.8759C7.82988 10.8759 8.49588 10.7079 9.07188 10.3719C9.64788 10.0239 10.0979 9.53186 10.4219 8.89586C10.7459 8.25986 10.9079 7.52186 10.9079 6.68186C10.9079 5.84186 10.7459 5.10986 10.4219 4.48586C10.0979 3.84986 9.64788 3.36386 9.07188 3.02786C8.49588 2.69186 7.82988 2.52386 7.07388 2.52386C6.31788 2.52386 5.64588 2.69186 5.05788 3.02786C4.48188 3.36386 4.03188 3.84986 3.70788 4.48586C3.38388 5.10986 3.22188 5.84186 3.22188 6.68186Z" fill="white"/>
<path d="M14.7979 6.69986C14.7979 5.46386 15.0739 4.35986 15.6259 3.38786C16.1899 2.40386 16.9519 1.64186 17.9119 1.10186C18.8839 0.549859 19.9699 0.273859 21.1699 0.273859C22.5739 0.273859 23.8039 0.633859 24.8599 1.35386C25.9159 2.07386 26.6539 3.06986 27.0739 4.34186H24.1759C23.8879 3.74186 23.4799 3.29186 22.9519 2.99186C22.4359 2.69186 21.8359 2.54186 21.1519 2.54186C20.4199 2.54186 19.7659 2.71586 19.1899 3.06386C18.6259 3.39986 18.1819 3.87986 17.8579 4.50386C17.5459 5.12786 17.3899 5.85986 17.3899 6.69986C17.3899 7.52786 17.5459 8.25986 17.8579 8.89586C18.1819 9.51986 18.6259 10.0059 19.1899 10.3539C19.7659 10.6899 20.4199 10.8579 21.1519 10.8579C21.8359 10.8579 22.4359 10.7079 22.9519 10.4079C23.4799 10.0959 23.8879 9.63986 24.1759 9.03986H27.0739C26.6539 10.3239 25.9159 11.3259 24.8599 12.0459C23.8159 12.7539 22.5859 13.1079 21.1699 13.1079C19.9699 13.1079 18.8839 12.8379 17.9119 12.2979C16.9519 11.7459 16.1899 10.9839 15.6259 10.0119C15.0739 9.03986 14.7979 7.93586 14.7979 6.69986Z" fill="white"/>
</svg>
