<svg width="34" height="34" viewBox="0 0 34 34" fill="none" xmlns="http://www.w3.org/2000/svg">
<circle cx="17" cy="17" r="17" fill="#D9D9D9"/>
<path d="M14.3724 23.0947C14.2234 23.0942 14.076 23.063 13.9394 23.0032C13.8029 22.9433 13.6801 22.8561 13.5787 22.7467L8.29471 17.1257C8.09719 16.9152 7.99138 16.6348 8.00055 16.3463C8.00973 16.0578 8.13314 15.7847 8.34364 15.5872C8.55414 15.3897 8.83448 15.2839 9.123 15.2931C9.41152 15.3022 9.68457 15.4256 9.88209 15.6361L14.3616 20.4092L23.5053 10.4065C23.5981 10.2909 23.7135 10.1956 23.8445 10.1263C23.9755 10.0569 24.1193 10.0151 24.267 10.0034C24.4148 9.99168 24.5633 10.0103 24.7036 10.0581C24.8439 10.1058 24.9729 10.1818 25.0828 10.2813C25.1926 10.3807 25.281 10.5016 25.3425 10.6365C25.4039 10.7713 25.4371 10.9173 25.4401 11.0655C25.443 11.2137 25.4157 11.3609 25.3597 11.4981C25.3037 11.6353 25.2202 11.7596 25.1144 11.8634L15.177 22.7359C15.0766 22.8472 14.9542 22.9365 14.8176 22.9982C14.6811 23.06 14.5332 23.0928 14.3833 23.0947H14.3724Z" fill="#231F20"/>
</svg>
