<svg width="11" height="19" viewBox="0 0 11 19" fill="none" xmlns="http://www.w3.org/2000/svg">
<path d="M1.438 18.9976C1.1026 18.9982 0.777553 18.888 0.519295 18.6861C0.373942 18.5724 0.25379 18.4328 0.165722 18.2753C0.0776526 18.1177 0.0233971 17.9453 0.0060626 17.768C-0.0112719 17.5906 0.00865528 17.4117 0.0647025 17.2417C0.12075 17.0716 0.211815 16.9136 0.332684 16.7768L6.76359 9.51857L0.56236 2.24684C0.443122 2.10833 0.354077 1.94895 0.300345 1.77787C0.246613 1.60679 0.229252 1.42738 0.249262 1.24995C0.269271 1.07251 0.326254 0.900564 0.416939 0.743976C0.507623 0.587388 0.630219 0.44925 0.77768 0.337502C0.926202 0.214226 1.10013 0.121241 1.28856 0.0643816C1.47698 0.0075226 1.67583 -0.011982 1.87262 0.00709089C2.06941 0.0261638 2.2599 0.0834029 2.43213 0.175216C2.60436 0.267029 2.75462 0.391434 2.87347 0.540623L9.80678 8.66546C10.0179 8.90776 10.1333 9.21169 10.1333 9.52534C10.1333 9.83899 10.0179 10.1429 9.80678 10.3852L2.62944 18.5101C2.48543 18.6739 2.30251 18.8035 2.0955 18.8882C1.88849 18.9729 1.66323 19.0103 1.438 18.9976Z" fill="white"/>
</svg>
